<?xml version="1.0" encoding="UTF-8"?>
<svg version="1.1" xmlns="http://www.w3.org/2000/svg" width="32" height="32">
<path d="M0 0 C7.26 0 14.52 0 22 0 C22 7.26 22 14.52 22 22 C14.74 22 7.48 22 0 22 C0 14.74 0 7.48 0 0 Z M2 3 C1.90018786 5.6773138 1.86120125 8.32304175 1.875 11 C1.87113281 11.75023437 1.86726562 12.50046875 1.86328125 13.2734375 C1.52324459 16.93606117 1.52324459 16.93606117 3 20 C5.6773138 20.09981214 8.32304175 20.13879875 11 20.125 C12.12535156 20.13080078 12.12535156 20.13080078 13.2734375 20.13671875 C16.93606117 20.47675541 16.93606117 20.47675541 20 19 C20.09981214 16.3226862 20.13879875 13.67695825 20.125 11 C20.12886719 10.24976563 20.13273437 9.49953125 20.13671875 8.7265625 C20.47675541 5.06393883 20.47675541 5.06393883 19 2 C16.3226862 1.90018786 13.67695825 1.86120125 11 1.875 C10.24976563 1.87113281 9.49953125 1.86726562 8.7265625 1.86328125 C5.06393883 1.52324459 5.06393883 1.52324459 2 3 Z " fill="#000000" transform="translate(5,5)"/>
<path d="M0 0 C6.93359375 -0.09765625 6.93359375 -0.09765625 9 0 C10 1 10 1 10.09765625 3.06640625 C10.08605469 3.89011719 10.07445312 4.71382812 10.0625 5.5625 C10.05347656 6.38878906 10.04445313 7.21507812 10.03515625 8.06640625 C10.02355469 8.70449219 10.01195312 9.34257812 10 10 C9.01 10 8.02 10 7 10 C6.34 8.02 5.68 6.04 5 4 C4.67 5.98 4.34 7.96 4 10 C2.68 10 1.36 10 0 10 C0 6.7 0 3.4 0 0 Z " fill="#000000" transform="translate(13,13)"/>
<path d="M0 0 C2.0625 0.4375 2.0625 0.4375 4 1 C3.83628906 1.55171875 3.67257813 2.1034375 3.50390625 2.671875 C2.94239586 5.26614007 2.90260992 7.59835411 2.9375 10.25 C2.95103516 11.58804687 2.95103516 11.58804687 2.96484375 12.953125 C2.97644531 13.62859375 2.98804688 14.3040625 3 15 C2.01 15 1.02 15 0 15 C-0.19390729 12.68802845 -0.37996367 10.3753971 -0.5625 8.0625 C-0.71912109 6.13083984 -0.71912109 6.13083984 -0.87890625 4.16015625 C-0.91886719 3.11730469 -0.95882813 2.07445312 -1 1 C-0.67 0.67 -0.34 0.34 0 0 Z " fill="#000000" transform="translate(9,8)"/>
</svg>
