<?xml version="1.0" encoding="UTF-8"?>
<svg version="1.1" xmlns="http://www.w3.org/2000/svg" width="32" height="32">
<path d="M0 0 C3.12578143 1.6720747 5.39281175 3.7856235 7 7 C7.51368822 11.08015218 7.89771513 15.20097889 6.0234375 18.95703125 C4.19979338 21.2561654 2.46510642 22.80620566 -0.25 23.9375 C-0.8275 23.958125 -1.405 23.97875 -2 24 C-3 23 -3 23 -3.3125 20.125 C-3.1578125 18.578125 -3.1578125 18.578125 -3 17 C-2.34 16.54625 -1.68 16.0925 -1 15.625 C1.19770325 14.21802043 1.19770325 14.21802043 1.265625 12.04296875 C1.25150088 10.02675027 1.13193095 8.01194698 1 6 C0.195625 6.2475 0.195625 6.2475 -0.625 6.5 C-4.20558153 7.25380664 -7.6703002 7.6648499 -11 6 C-11.27823059 10.02098068 -11.27823059 10.02098068 -11 14 C-9.0399719 15.63676257 -9.0399719 15.63676257 -7 17 C-6.75 20.1875 -6.75 20.1875 -7 23 C-7.99 23.33 -8.98 23.66 -10 24 C-15.55555556 19.88888889 -15.55555556 19.88888889 -17 17 C-17.51512617 12.90842645 -17.94367269 8.76410454 -15.953125 5.04296875 C-11.37288125 -0.49373767 -6.8728078 -0.96829758 0 0 Z " fill="#000000" transform="translate(21,4)"/>
</svg>
